# xmcd
#
# Track frame offsets:
#	150
#	19101
#	37316
#	52977
#	67829
#	85329
#	101383
#	117844
#	135434
#	151874
#	168213
#	186968
#	204942
#	222099
#	235369
#
# Disc length: 3359 seconds
#
# Revision: 1
# Processed by: cddbd v1.4PL0 Copyright (c) Steve Scherf et al.
# Submitted via: audiograbber 1.80
#
DISCID=bf0d1d0f
DTITLE=Various Artist - Hott Country 083
DYEAR=1900
DGENRE=
TTITLE0=Alan Jackson - Let It Be Christmas
TTITLE1=Faith Hill - When The Lights Go Down
TTITLE2=Paul Brandt - When You Call My Name
TTITLE3=Nitty Gritty Dirt Band/ Dwight Yaoakam - Some Dark Holler
TTITLE4=Keith Urban - Raining On Sunday
TTITLE5=Michelle Wright - I Will Be There
TTITLE6=Chris Cummings - Benefit Of Doubt
TTITLE7=Martina McBride - Concrete Angel
TTITLE8=Jennifer Honson - Beautiful Goodbye
TTITLE9=Keith Urban - Whenever I Run
TTITLE10=Nitty Gritty Dirt Band - Roll The Stone Away
TTITLE11=Ray Price - You Just Don't Love Me Anymore
TTITLE12=Dixie Chicks  - Landslide ( Sheryl Crow Remix )
TTITLE13=Elvis Presley - Burning Love ( Remastered Version )
TTITLE14=Rhett Miller - Come Around
EXTD=
EXTT0=
EXTT1=
EXTT2=
EXTT3=
EXTT4=
EXTT5=
EXTT6=
EXTT7=
EXTT8=
EXTT9=
EXTT10=
EXTT11=
EXTT12=
EXTT13=
EXTT14=
PLAYORDER=
